<svg xmlns="http://www.w3.org/2000/svg" xmlns:ev="http://www.w3.org/2001/xml-events" xmlns:xlink="http://www.w3.org/1999/xlink" width="420.861" height="334.877" class="st9" color-interpolation-filters="sRGB" viewBox="0 0 315.646 251.157" xml:space="preserve"><style type="text/css">.st1,.st2{fill:#c8d6e6;stroke:#000;stroke-linecap:butt;stroke-width:.5}.st2{fill:#fff;stroke:none}.st3{fill:#000;font-family:Arial,Helvetica,sans-serif;font-size:.666664em}.st4{fill:#fff;stroke:#000;stroke-linecap:butt;stroke-width:.5}.st5{font-size:1em}.st6{marker-end:url(#mrkr4-15);stroke-linecap:butt;stroke-width:.24}.st6,.st7,.st8{stroke:#000}.st7{fill:#000;fill-opacity:1;stroke-opacity:1;stroke-width:.11764705882353}.st8{fill:#ebf1de;stroke-linecap:butt;stroke-width:.5}.st9{fill:none;fill-rule:evenodd;font-size:12px;overflow:visible;stroke-linecap:square;stroke-miterlimit:3}</style><defs id="Markers"><g id="lend4"><path d="M 2 1 L -0 0 L 2 -1 L 2 1" style="stroke:none"/></g><marker id="mrkr4-15" class="st7" markerUnits="strokeWidth" orient="auto" overflow="visible" refX="-17"><use transform="scale(-8.5,-8.5)" xlink:href="#lend4"/></marker></defs><g><title>Page-1</title><g id="shape45-1" transform="translate(0.5,-129.476)"><title>Sheet.45</title><rect width="82.205" height="104.882" x="0" y="146.276" class="st1"/></g><g id="shape25-3" transform="translate(7.58661,-238.61)"><title>Block.25</title><desc>Secure EL1/EL0</desc><rect width="68.031" height="11.339" x="0" y="239.819" class="st2"/><text x="4.89" y="247.89" class="st3">Secure EL1/EL0</text></g><g id="shape6-6" transform="translate(6.16929,-207.429)"><title>Block.6</title><desc>Secure peripherals</desc><rect width="70.866" height="22.677" x="0" y="228.48" class="st4"/><text x="22.76" y="237.42" class="st3">Secure <tspan x="15.64" class="st5" dy="9.6">peripherals</tspan></text></g><g id="shape17-10" transform="translate(216.353,-176.586) rotate(33.6901)"><title>Sheet.17</title><path d="M0 251.16 L36.8 251.16" class="st6"/></g><g id="shape46-16" transform="translate(0.5,-0.5)"><title>Sheet.46</title><rect width="82.205" height="104.882" x="0" y="146.276" class="st1"/></g><g id="shape16-18" transform="translate(6.16929,-184.752)"><title>Block.16</title><desc>Secure data</desc><rect width="70.866" height="19.843" x="0" y="231.315" class="st4"/><text x="13.86" y="243.64" class="st3">Secure data</text></g><g id="shape21-21" transform="translate(6.16929,-159.24)"><title>Block.21</title><desc>Non-secure data</desc><rect width="70.866" height="22.677" x="0" y="228.48" class="st4"/><text x="5.86" y="242.22" class="st3">Non-secure data</text></g><g id="shape22-24" transform="translate(6.16929,-135.146)"><title>Block.22</title><desc>Secure code</desc><rect width="70.866" height="19.843" x="0" y="231.315" class="st4"/><text x="12.97" y="243.64" class="st3">Secure code</text></g><g id="shape23-27" transform="translate(6.16929,-72.7835)"><title>Block.23</title><desc>Non-secure peripherals</desc><rect width="70.866" height="28.346" x="0" y="222.811" class="st4"/><text x="14.76" y="234.58" class="st3">Non-secure <tspan x="15.64" class="st5" dy="9.6">peripherals</tspan></text></g><g id="shape24-31" transform="translate(6.16929,-31.6811)"><title>Block.24</title><desc>Non-secure data</desc><rect width="70.866" height="35.433" x="0" y="215.724" class="st4"/><text x="5.86" y="235.84" class="st3">Non-secure data</text></g><g id="shape28-34" transform="translate(6.16929,-7.58661)"><title>Block.28</title><desc>Non-secure code</desc><rect width="70.866" height="19.843" x="0" y="231.315" class="st4"/><text x="4.97" y="243.64" class="st3">Non-secure code</text></g><g id="shape29-37" transform="translate(1.78848,-108.217)"><title>Block.29</title><desc>Non-secure EL1/EL0</desc><rect width="79.628" height="11.339" x="0" y="239.819" class="st2"/><text x="2.68" y="247.89" class="st3">Non-secure EL1/EL0</text></g><g id="shape34-40" transform="translate(111.051,-170.579)"><title>Block.34</title><desc>Translation tables</desc><rect width="70.866" height="34.016" x="0" y="217.142" class="st4"/><text x="3.86" y="236.55" class="st3">Translation tables</text></g><g id="shape47-43" transform="translate(111.051,-34.5157)"><title>Block.47</title><desc>Translation tables</desc><rect width="70.866" height="34.016" x="0" y="217.142" class="st4"/><text x="3.86" y="236.55" class="st3">Translation tables</text></g><g id="shape48-46" transform="translate(207.429,-130.185)"><title>Sheet.48</title><rect width="82.205" height="104.882" x="0" y="146.276" class="st8"/></g><g id="shape49-48" transform="translate(183.335,-239.319)"><title>Block.49</title><desc>Secure physical address space</desc><rect width="130.394" height="11.339" x="0" y="239.819" class="st2"/><text x="9.83" y="247.89" class="st3">Secure physical address space</text></g><g id="shape50-51" transform="translate(213.098,-208.138)"><title>Block.50</title><desc>RAM</desc><rect width="70.866" height="22.677" x="0" y="228.48" class="st4"/><text x="26.54" y="242.22" class="st3">RAM</text></g><g id="shape51-54" transform="translate(213.098,-177.665)"><title>Block.51</title><desc>Peripherals</desc><rect width="70.866" height="19.843" x="0" y="231.315" class="st4"/><text x="15.2" y="243.64" class="st3">Peripherals</text></g><g id="shape52-57" transform="translate(213.098,-145.067)"><title>Block.52</title><desc>FLASH</desc><rect width="70.866" height="22.677" x="0" y="228.48" class="st4"/><text x="22.54" y="242.22" class="st3">FLASH</text></g><g id="shape53-60" transform="translate(207.429,-0.5)"><title>Sheet.53</title><rect width="82.205" height="104.882" x="0" y="146.276" class="st8"/></g><g id="shape54-62" transform="translate(181.917,-109.634)"><title>Block.54</title><desc>Non-secure physical address space</desc><rect width="133.228" height="11.339" x="0" y="239.819" class="st2"/><text x="3.25" y="247.89" class="st3">Non-secure physical address space</text></g><g id="shape55-65" transform="translate(213.098,-78.4528)"><title>Block.55</title><desc>RAM</desc><rect width="70.866" height="22.677" x="0" y="228.48" class="st4"/><text x="26.54" y="242.22" class="st3">RAM</text></g><g id="shape56-68" transform="translate(213.098,-47.9803)"><title>Block.56</title><desc>Peripherals</desc><rect width="70.866" height="19.843" x="0" y="231.315" class="st4"/><text x="15.2" y="243.64" class="st3">Peripherals</text></g><g id="shape57-71" transform="translate(213.098,-15.3819)"><title>Block.57</title><desc>FLASH</desc><rect width="70.866" height="22.677" x="0" y="228.48" class="st4"/><text x="22.54" y="242.22" class="st3">FLASH</text></g><g id="shape58-74" transform="translate(-100.56,-71.5046) rotate(-45)"><title>Sheet.58</title><path d="M0 251.16 L44.03 251.16" class="st6"/></g><g id="shape59-79" transform="translate(16.1208,-163.08) rotate(-14.0362)"><title>Sheet.59</title><path d="M0 251.16 L30.98 251.16" class="st6"/></g><g id="shape60-84" transform="translate(128.26,-189.394) rotate(11.7683)"><title>Sheet.60</title><path d="M0 251.16 L30.67 251.16" class="st6"/></g><g id="shape61-89" transform="translate(31.2228,-145.859) rotate(-36.8699)"><title>Sheet.61</title><path d="M0 251.16 L34.9 251.16" class="st6"/></g><g id="shape62-94" transform="translate(181.917,-187.587)"><title>Sheet.62</title><path d="M0 251.16 L27.1 251.16" class="st6"/></g><g id="shape63-99" transform="translate(329.641,-131.045) rotate(36.0274)"><title>Sheet.63</title><path d="M0 251.16 L34.48 251.16" class="st6"/></g><g id="shape64-104" transform="translate(417.247,-15.6752) rotate(69.5505)"><title>Sheet.64</title><path d="M0 251.16 L85.17 251.16" class="st6"/></g><g id="shape65-109" transform="translate(232.93,-32.7182) rotate(38.3675)"><title>Sheet.65</title><path d="M0 251.16 L39.3 251.16" class="st6"/></g><g id="shape66-114" transform="translate(61.3687,-48.9085) rotate(-3.57633)"><title>Sheet.66</title><path d="M0 251.16 L30 251.16" class="st6"/></g><g id="shape67-119" transform="translate(-73.6591,32.7236) rotate(-36.8699)"><title>Sheet.67</title><path d="M0 251.16 L38.44 251.16" class="st6"/></g><g id="shape68-124" transform="translate(28.3477,-7.60723) rotate(-37.6942)"><title>Sheet.68</title><path d="M0 251.16 L35.33 251.16" class="st6"/></g><g id="shape69-129" transform="translate(131.586,-46.4289) rotate(-11.5601)"><title>Sheet.69</title><path d="M0 251.16 L27.75 251.16" class="st6"/></g><g id="shape70-134" transform="translate(298.267,-14.4444) rotate(27.5973)"><title>Sheet.70</title><path d="M0 251.16 L31.1 251.16" class="st6"/></g></g></svg>